<?xml version="1.0" standalone="no"?>
<!DOCTYPE svg PUBLIC "-//W3C//DTD SVG 20010904//EN"
 "http://www.w3.org/TR/2001/REC-SVG-20010904/DTD/svg10.dtd">
<svg version="1.0" xmlns="http://www.w3.org/2000/svg"
 width="700.000000pt" height="700.000000pt" viewBox="0 0 700.000000 700.000000"
 preserveAspectRatio="xMidYMid meet">
<metadata>
Created by potrace 1.14, written by Peter Selinger 2001-2017
</metadata>
<g transform="translate(0.000000,700.000000) scale(0.100000,-0.100000)"
fill="#000000" stroke="none">
<path d="M3278 6996 c-1 -2 -41 -6 -88 -10 -47 -4 -101 -9 -120 -12 -139 -19
-252 -40 -360 -66 -69 -16 -133 -31 -143 -33 -39 -9 -244 -78 -351 -119 -245
-95 -615 -298 -786 -433 -8 -6 -51 -40 -95 -74 -425 -331 -812 -824 -1020
-1299 -25 -58 -52 -118 -59 -135 -51 -115 -148 -423 -171 -546 -3 -13 -11 -58
-20 -99 -22 -115 -30 -160 -41 -255 -26 -230 -26 -667 1 -826 2 -13 6 -46 9
-74 9 -78 22 -152 51 -285 21 -96 91 -339 114 -395 5 -11 25 -65 46 -120 63
-166 249 -531 312 -610 4 -6 34 -49 65 -95 261 -390 673 -772 1113 -1032 373
-221 845 -385 1274 -444 25 -3 57 -8 71 -10 163 -25 682 -25 842 1 13 2 46 7
73 10 72 10 86 12 120 19 17 3 44 8 60 11 343 65 740 212 1039 384 49 28 91
51 93 51 9 0 264 178 343 239 156 121 330 284 460 430 36 41 70 79 76 85 65
68 263 353 352 508 46 79 172 331 172 342 0 3 11 29 24 58 57 127 151 421 182
573 17 81 54 301 59 350 4 33 9 71 11 85 9 46 11 524 4 605 -15 153 -21 210
-25 225 -2 8 -7 35 -10 60 -17 129 -80 384 -136 552 -349 1038 -1173 1862
-2209 2207 -174 58 -415 118 -550 136 -19 3 -46 7 -60 10 -13 2 -52 7 -86 11
-33 3 -74 8 -90 10 -33 5 -540 14 -546 10z m507 -709 c17 -3 55 -8 85 -11 641
-80 1263 -408 1710 -902 116 -129 213 -259 322 -434 46 -73 148 -278 183 -365
15 -38 33 -83 40 -100 33 -80 97 -297 110 -375 3 -19 11 -55 16 -80 48 -213
60 -648 25 -890 -72 -493 -254 -937 -542 -1316 -337 -445 -793 -777 -1319
-960 -97 -34 -297 -89 -359 -99 -17 -3 -53 -10 -81 -15 -27 -5 -77 -12 -110
-16 -33 -3 -69 -8 -80 -11 -36 -9 -469 -11 -535 -3 -36 5 -92 12 -125 15 -48
5 -216 37 -316 60 -56 12 -241 74 -339 112 -616 242 -1137 710 -1444 1294
-128 244 -224 511 -270 749 -42 219 -51 316 -51 560 0 174 6 294 19 370 3 14
7 47 11 74 3 27 8 52 10 55 1 3 6 22 9 41 12 75 18 98 42 190 24 90 77 248
113 335 68 166 252 499 284 513 4 2 7 8 7 13 0 28 216 286 345 412 451 441
1069 729 1675 782 41 4 76 8 78 10 5 5 452 -3 487 -8z"/>
<path d="M2327 4876 c-78 -32 -118 -64 -189 -155 -86 -107 -150 -208 -212
-336 -44 -90 -105 -254 -121 -325 -44 -194 -50 -246 -50 -435 0 -157 5 -220
25 -324 17 -89 55 -226 79 -286 5 -11 13 -31 18 -45 33 -84 130 -269 165 -315
4 -5 35 -46 67 -91 275 -372 736 -631 1212 -681 147 -15 385 -5 508 22 12 3
31 7 44 10 114 24 266 76 377 129 512 244 871 716 974 1281 16 86 20 156 20
315 0 136 -5 201 -22 292 -55 296 -188 581 -376 810 -101 122 -184 163 -316
156 -304 -17 -437 -373 -225 -602 97 -105 197 -315 227 -475 17 -95 19 -288 2
-376 -64 -340 -272 -616 -577 -763 -341 -165 -724 -139 -1042 73 -288 191
-463 519 -462 867 0 61 3 127 8 147 4 20 10 53 13 75 9 56 51 177 87 249 38
75 75 131 144 217 70 87 99 170 92 262 -10 129 -80 234 -195 290 -88 44 -189
49 -275 14z"/>
</g>
</svg>
